<?xml version="1.0" encoding="iso-8859-1"?>
<!-- Generator: Adobe Illustrator 19.0.0, SVG Export Plug-In . SVG Version: 6.00 Build 0)  -->
<svg version="1.1" id="Layer_1" xmlns="http://www.w3.org/2000/svg" xmlns:xlink="http://www.w3.org/1999/xlink" x="0px" y="0px"
	 viewBox="0 0 512 512" style="enable-background:new 0 0 512 512;" xml:space="preserve">
<path style="fill:#E5E5E5;" d="M256,0C114.616,0,0,114.616,0,256s114.616,256,256,256s256-114.616,256-256S397.384,0,256,0z"/>
<polygon points="446.512,335.656 65.488,335.656 65.488,348.264 84.536,365.848 427.464,365.848 446.512,348.264 "/>
<path style="fill:#FFFFFF;" d="M101.208,335.656V129.072c0-4.944,4.016-8.984,8.928-8.984h291.72c4.912,0,8.936,4.04,8.936,8.984
	v206.584"/>
<path d="M416.744,335.656H404.84V129.072c0-1.64-1.36-3.032-2.976-3.032H110.136c-1.616,0-2.976,1.392-2.976,3.032v206.584H95.256
	V129.072c0-8.248,6.672-14.944,14.88-14.944h291.72c8.208,0,14.88,6.696,14.88,14.944L416.744,335.656L416.744,335.656z"/>
<polygon style="fill:#999999;" points="290.992,348.184 221.008,348.184 209.104,335.656 302.896,335.656 "/>
<path style="fill:#F00000;" d="M285.2,70.224c0,30.16-29.2,31.976-29.2,31.976s-29.2-1.816-29.2-31.976h-37.064l-52.288,26.912
	l20.592,57.976l29.824-13v149.88H256h68.128v-149.88l29.824,13l20.592-58.104l-52.288-26.776L285.2,70.224z"/>
<path style="fill:#FFFFFF;" d="M296.824,243.512c-5.48,3.056-14.824,6.12-25.136,6.12c-15.792,0-30.288-6.448-39.312-18.368
	c-4.36-5.48-7.568-12.4-9.024-20.944h-10.48v-11.448h8.856c0-0.8,0-1.768,0-2.744c0-1.608,0.168-3.216,0.168-4.832h-9.016v-11.432
	h10.792c2.088-8.704,5.968-16.112,11.112-22.072c9.192-10.312,22.072-16.432,37.216-16.432c9.824,0,18.368,2.256,24.168,4.832
	l-4.512,18.368c-4.184-1.768-10.784-3.872-17.88-3.872c-7.728,0-14.824,2.584-19.808,8.704c-2.256,2.576-4.024,6.28-5.16,10.48
	h40.12v11.432h-42.544c-0.152,1.616-0.152,3.392-0.152,5c0,0.968,0,1.608,0,2.576h42.696v11.448h-40.44
	c1.12,4.832,2.896,8.536,5.312,11.28c5.152,5.8,12.736,8.208,20.792,8.208c7.408,0,14.976-2.408,18.368-4.184L296.824,243.512z"/>
<g>
</g>
<g>
</g>
<g>
</g>
<g>
</g>
<g>
</g>
<g>
</g>
<g>
</g>
<g>
</g>
<g>
</g>
<g>
</g>
<g>
</g>
<g>
</g>
<g>
</g>
<g>
</g>
<g>
</g>
</svg>
